<svg width="32" height="32" viewBox="0 0 32 32" fill="none" xmlns="http://www.w3.org/2000/svg">
    <g clip-path="url(#clip0_10066_102250)">
        <path
            d="M12.842 5.14791L13.2376 3.31512C13.2726 3.15309 13.3705 3.01159 13.5098 2.92174C13.6491 2.8319 13.8184 2.80107 13.9804 2.83605C14.1424 2.87102 14.2839 2.96892 14.3738 3.10822C14.4636 3.24752 14.4944 3.41681 14.4595 3.57884L14.0639 5.41163C14.0289 5.57366 13.931 5.71516 13.7917 5.80501C13.6524 5.89485 13.4831 5.92568 13.3211 5.89071C13.1591 5.85573 13.0176 5.75783 12.9277 5.61853C12.8379 5.47923 12.807 5.30994 12.842 5.14791ZM13.0574 7.11257C12.0907 6.90394 11.0839 6.98663 10.1643 7.3502C9.24462 7.71377 8.45343 8.34188 7.89076 9.1551C7.32809 9.96833 7.0192 10.9301 7.00316 11.9189C6.98711 12.9077 7.26464 13.879 7.80063 14.7101C8.33663 15.5411 9.10703 16.1946 10.0144 16.5878C10.9218 16.981 11.9254 17.0963 12.8983 16.9191C13.8712 16.742 14.7697 16.2803 15.4802 15.5924C16.1907 14.9046 16.6813 14.0216 16.89 13.0549C17.1682 11.7588 16.921 10.4052 16.2025 9.29121C15.484 8.17718 14.3529 7.39366 13.0574 7.11257ZM7.64439 6.39664C7.73428 6.53602 7.87586 6.63398 8.03798 6.66897C8.2001 6.70396 8.36948 6.67311 8.50886 6.58322C8.64824 6.49333 8.7462 6.35175 8.78119 6.18963C8.81618 6.02751 8.78533 5.85813 8.69544 5.71875L7.7373 4.23317C7.6474 4.09379 7.50582 3.99583 7.3437 3.96084C7.18158 3.92585 7.0122 3.95669 6.87283 4.04659C6.73345 4.13648 6.63549 4.27806 6.6005 4.44018C6.56551 4.6023 6.59635 4.77168 6.68624 4.91106L7.64439 6.39664ZM5.72122 15.3071L4.23564 16.2652C4.09626 16.3551 3.9983 16.4967 3.96331 16.6588C3.92832 16.8209 3.95916 16.9903 4.04906 17.1297C4.13895 17.2691 4.28053 17.367 4.44265 17.402C4.60477 17.437 4.77415 17.4062 4.91353 17.3163L6.39911 16.3581C6.46812 16.3136 6.52769 16.256 6.57442 16.1884C6.62114 16.1209 6.65411 16.0448 6.67144 15.9645C6.68876 15.8843 6.69011 15.8014 6.6754 15.7206C6.66068 15.6398 6.6302 15.5627 6.58569 15.4937C6.54118 15.4247 6.48351 15.3651 6.41598 15.3184C6.34845 15.2716 6.27237 15.2387 6.1921 15.2213C6.11182 15.204 6.02892 15.2027 5.94813 15.2174C5.86734 15.2321 5.79023 15.2626 5.72122 15.3071ZM17.813 8.77838C17.8932 8.79576 17.9761 8.79717 18.0569 8.78251C18.1377 8.76786 18.2148 8.73743 18.2838 8.69297L19.7694 7.73482C19.9087 7.64493 20.0067 7.50335 20.0417 7.34123C20.0767 7.17911 20.0458 7.00973 19.9559 6.87036C19.866 6.73098 19.7245 6.63302 19.5623 6.59803C19.4002 6.56304 19.2308 6.59388 19.0915 6.68377L17.6059 7.64192C17.5019 7.7089 17.4201 7.80523 17.3709 7.9187C17.3217 8.03218 17.3073 8.1577 17.3295 8.27938C17.3516 8.40107 17.4094 8.51343 17.4955 8.60226C17.5816 8.69109 17.692 8.75238 17.813 8.77838ZM16.3606 17.6034C16.2707 17.464 16.1291 17.3661 15.967 17.3311C15.8049 17.2961 15.6355 17.3269 15.4961 17.4168C15.3568 17.5067 15.2588 17.6483 15.2238 17.8104C15.1888 17.9725 15.2197 18.1419 15.3096 18.2813L16.2677 19.7669C16.3122 19.8359 16.3699 19.8955 16.4374 19.9422C16.5049 19.9889 16.581 20.0219 16.6613 20.0392C16.7416 20.0565 16.8245 20.0579 16.9053 20.0432C16.9861 20.0285 17.0632 19.998 17.1322 19.9535C17.2012 19.909 17.2608 19.8513 17.3075 19.7838C17.3542 19.7162 17.3872 19.6401 17.4045 19.5599C17.4218 19.4796 17.4232 19.3967 17.4085 19.3159C17.3937 19.2351 17.3633 19.158 17.3188 19.089L16.3606 17.6034ZM5.89318 10.6814C5.92815 10.5194 5.89732 10.3501 5.80748 10.2108C5.71763 10.0715 5.57613 9.97361 5.4141 9.93864L3.58131 9.54306C3.41928 9.50809 3.24999 9.53892 3.11069 9.62876C2.97139 9.71861 2.87349 9.86011 2.83852 10.0221C2.80354 10.1842 2.83437 10.3535 2.92421 10.4928C3.01406 10.6321 3.15556 10.73 3.31759 10.7649L5.15038 11.1605C5.31241 11.1955 5.4817 11.1647 5.621 11.0748C5.7603 10.985 5.8582 10.8435 5.89318 10.6814ZM10.6839 18.1093C10.5219 18.0744 10.3526 18.1052 10.2133 18.195C10.074 18.2849 9.97608 18.4264 9.94111 18.5884L9.54553 20.4212C9.51056 20.5832 9.54139 20.7525 9.63123 20.8918C9.72108 21.0311 9.86258 21.129 10.0246 21.164C10.1866 21.199 10.3559 21.1682 10.4952 21.0783C10.6345 20.9885 10.7324 20.847 10.7674 20.6849L11.163 18.8521C11.1979 18.6901 11.1671 18.5208 11.0773 18.3815C10.9874 18.2422 10.8459 18.1443 10.6839 18.1093ZM20.6874 13.2351L18.8546 12.8395C18.6926 12.8046 18.5233 12.8354 18.384 12.9252C18.2447 13.0151 18.1468 13.1566 18.1118 13.3186C18.0768 13.4807 18.1077 13.6499 18.1975 13.7892C18.2874 13.9285 18.4289 14.0264 18.5909 14.0614L20.4237 14.457C20.5857 14.492 20.755 14.4611 20.8943 14.3713C21.0336 14.2814 21.1315 14.1399 21.1665 13.9779C21.2015 13.8159 21.1706 13.6466 21.0808 13.5073C20.9909 13.368 20.8494 13.2701 20.6874 13.2351Z"
            fill="#F4C01A"
        />
    </g>
    <path
        d="M19.9514 9.125C20.4621 9.04151 20.9788 8.99971 21.4964 9C24.0159 9 26.4323 10.0009 28.2139 11.7825C29.9955 13.5641 30.9964 15.9804 30.9964 18.5C30.9964 21.0196 29.9955 23.4359 28.2139 25.2175C26.4323 26.9991 24.0159 28 21.4964 28H11.4964C10.2952 27.9993 9.11778 27.6659 8.09468 27.0366C7.07157 26.4073 6.24284 25.5069 5.70045 24.4352C5.15806 23.3635 4.92323 22.1624 5.02203 20.9654C5.12082 19.7683 5.54937 18.622 6.26012 17.6538L7.74637 16.1988C8.84124 15.4188 10.1521 14.9998 11.4964 15C11.8735 15 12.2499 15.0327 12.6214 15.0975C13.0959 13.8721 13.8181 12.7578 14.743 11.8243C15.6679 10.8909 17.9964 9.6725 17.9964 9.6725L19.9514 9.125Z"
        fill="#D9D9D9"
    />
    <defs>
        <clipPath id="clip0_10066_102250">
            <rect width="20" height="20" fill="white" transform="translate(4.33594 0.115356) rotate(12.1795)" />
        </clipPath>
    </defs>
</svg>
