<svg width="32" height="32" viewBox="0 0 32 32" fill="none" xmlns="http://www.w3.org/2000/svg">
    <path
        d="M2.03964 14.7596C2.67319 16.8283 3.9429 18.6444 5.66808 19.9495C7.18273 21.0897 8.98514 21.7851 10.873 21.9577C12.7608 22.1302 14.6594 21.7731 16.3556 20.9263C18.0518 20.0796 19.4785 18.7767 20.4755 17.164C21.4725 15.5513 22.0004 13.6926 22 11.7964C22.0068 9.58323 21.2874 7.42892 19.9523 5.66399C18.6475 3.93842 16.8319 2.66844 14.7637 2.03475C14.6274 1.99277 14.4822 1.98875 14.3438 2.02312C14.2053 2.05749 14.0789 2.12896 13.9781 2.22983C13.8772 2.33071 13.8058 2.45717 13.7714 2.59562C13.737 2.73408 13.741 2.87928 13.783 3.01562C14.2353 4.51188 14.2732 6.10282 13.8927 7.61893C13.5123 9.13504 12.7277 10.5195 11.6227 11.6248C10.5176 12.7301 9.13346 13.5148 7.61769 13.8954C6.10191 14.2759 4.51132 14.238 3.0154 13.7856C2.87909 13.7437 2.73392 13.7396 2.59549 13.774C2.45707 13.8084 2.33063 13.8798 2.22978 13.9807C2.12893 14.0816 2.05748 14.2081 2.02311 14.3465C1.98875 14.485 1.99277 14.6302 2.03474 14.7665L2.03964 14.7596Z"
        fill="#F4C01A"
    />
    <path
        d="M19.9514 9.125C20.4621 9.04151 20.9788 8.99971 21.4964 9C24.0159 9 26.4323 10.0009 28.2139 11.7825C29.9955 13.5641 30.9964 15.9804 30.9964 18.5C30.9964 21.0196 29.9955 23.4359 28.2139 25.2175C26.4323 26.9991 24.0159 28 21.4964 28H11.4964C10.2952 27.9993 9.11778 27.6659 8.09468 27.0366C7.07157 26.4073 6.24284 25.5069 5.70045 24.4352C5.15806 23.3635 4.92323 22.1624 5.02203 20.9654C5.12082 19.7683 5.54937 18.622 6.26012 17.6538L7.74637 16.1988C8.84124 15.4188 10.1521 14.9998 11.4964 15C11.8735 15 12.2499 15.0327 12.6214 15.0975C13.0959 13.8721 13.8181 12.7578 14.743 11.8243C15.6679 10.8909 17.9964 9.6725 17.9964 9.6725L19.9514 9.125Z"
        fill="#D9D9D9"
    />
</svg>
