<svg width="28" height="28" viewBox="0 0 28 28" fill="currentColor" xmlns="http://www.w3.org/2000/svg">
    <path
        d="M1.75 22.75H26.2482V24.5H1.75V22.75ZM14 17.5C15.932 17.5024 17.4976 19.068 17.5 21H19.25C19.25 18.1005 16.8995 15.75 14 15.75C11.1005 15.75 8.75 18.1005 8.75 21H10.5C10.5024 19.068 12.068 17.5024 14 17.5ZM21.875 19.25H26.25V21H21.875V19.25ZM18.9761 14.7875L22.0439 11.7189L23.2811 12.9561L20.2134 16.0239L18.9761 14.7875ZM14 3.5L9.625 7.875L10.8588 9.10875L13.125 6.85125V13.125H14.875V6.85125L17.1413 9.10875L18.375 7.875L14 3.5ZM4.71887 12.9561L5.95613 11.7189L9.02388 14.7866L7.7875 16.0239L4.71887 12.9561ZM1.75 19.25H6.125V21H1.75V19.25Z"
    />
</svg>
