<svg width="40" height="40" viewBox="0 0 40 40" fill="none" xmlns="http://www.w3.org/2000/svg">
    <rect width="40" height="40" rx="8" fill="#39238F" />
    <path
        fill-rule="evenodd"
        clip-rule="evenodd"
        d="M18.4432 21.1602V13.9803C18.4432 12.5716 17.3013 11.4297 15.8926 11.4297C14.4839 11.4297 13.342 12.5716 13.342 13.9803V21.1602C11.7415 22.2747 11.0499 24.2992 11.6339 26.1599C12.2179 28.0207 13.9423 29.2868 15.8926 29.2868C17.8428 29.2868 19.5673 28.0207 20.1513 26.1599C20.7353 24.2992 20.0437 22.2747 18.4432 21.1602ZM15.8923 12.7048C16.5966 12.7048 17.1676 13.2758 17.1676 13.9801V18.4437H14.617V13.9801C14.617 13.2758 15.188 12.7048 15.8923 12.7048ZM15.8925 28.0084C14.4495 28.0084 13.1864 27.0392 12.813 25.6454C12.4395 24.2516 13.0487 22.7807 14.2983 22.0592L14.6171 21.8806V19.719H17.1678V21.8806L17.4866 22.0592C18.7362 22.7807 19.3454 24.2516 18.9719 25.6454C18.5985 27.0392 17.3354 28.0084 15.8925 28.0084V28.0084ZM22.9065 12.7048H29.283V13.9801H22.9065V12.7048ZM22.9065 16.5307H27.37V17.806H22.9065V16.5307ZM22.9065 20.3566H29.283V21.6319H22.9065V20.3566ZM22.9065 24.1825H27.37V25.4578H22.9065V24.1825Z"
        fill="white"
    />
</svg>
