<svg xmlns="http://www.w3.org/2000/svg" viewBox="0 0 500 400">
    <defs>
        <symbol id="clear-day" viewBox="0 0 32 32">
            <path
                fill="#f4c01a"
                d="M15 5V2a1 1 0 0 1 2 0v3a1 1 0 0 1-2 0m1 3a8 8 0 1 0 8 8 8.01 8.01 0 0 0-8-8m-8.707.707a1 1 0 1 0 1.414-1.415l-2-2a1 1 0 1 0-1.414 1.415zm0 14.586-2 2a1 1 0 1 0 1.414 1.415l2-2a1 1 0 1 0-1.415-1.415M24 9a1 1 0 0 0 .707-.293l2-2a1 1 0 0 0-1.415-1.414l-2 2A1 1 0 0 0 24 9m.707 14.293a1 1 0 1 0-1.415 1.415l2 2a1 1 0 0 0 1.415-1.415zM6 16a1 1 0 0 0-1-1H2a1 1 0 0 0 0 2h3a1 1 0 0 0 1-1m10 10a1 1 0 0 0-1 1v3a1 1 0 0 0 2 0v-3a1 1 0 0 0-1-1m14-11h-3a1 1 0 0 0 0 2h3a1 1 0 0 0 0-2"
            />
        </symbol>
        <symbol id="clear-night" viewBox="0 0 32 32">
            <path
                fill="#f4c01a"
                d="M29.443 18.776a13.1 13.1 0 0 1-4.625 6.614A13 13 0 0 1 4 15a12.9 12.9 0 0 1 2.61-7.815 13.1 13.1 0 0 1 6.614-4.625 1 1 0 0 1 1.25 1.25 11.01 11.01 0 0 0 13.725 13.725 1 1 0 0 1 1.25 1.25z"
            />
        </symbol>
        <symbol id="cloudy" viewBox="0 0 32 32">
            <path
                fill="#e0e0e0"
                d="M20.008 5a11.01 11.01 0 0 0-9.847 6.084A10.9 10.9 0 0 0 9 15.966 1.023 1.023 0 0 1 8.071 17 1 1 0 0 1 7 16a13 13 0 0 1 .668-4.115.5.5 0 0 0-.594-.647A8.01 8.01 0 0 0 1 19c0 4.399 3.719 8 8.125 8H20a11.01 11.01 0 0 0 10.991-11.435C30.764 9.693 25.884 5 20.008 5"
            />
        </symbol>
        <symbol id="drizzle" viewBox="0 0 32 32">
            <rect width="2" height="4" x="19.336" y="22" fill="#4559ff" rx="1" transform="rotate(35.741 19.336 22)" />
            <rect width="2" height="4" x="26.336" y="20" fill="#4559ff" rx="1" transform="rotate(35.741 26.336 20)" />
            <rect width="2" height="4" x="23.336" y="24" fill="#4559ff" rx="1" transform="rotate(35.741 23.336 24)" />
            <rect width="2" height="4" x="16.336" y="26" fill="#4559ff" rx="1" transform="rotate(35.741 16.336 26)" />
            <rect width="2" height="4" x="15.336" y="19" fill="#4559ff" rx="1" transform="rotate(35.741 15.336 19)" />
            <rect width="2" height="4" x="12.336" y="23" fill="#4559ff" rx="1" transform="rotate(35.741 12.336 23)" />
            <rect width="2" height="4" x="8.336" y="21" fill="#4559ff" rx="1" transform="rotate(35.741 8.336 21)" />
            <rect width="2" height="4" x="5.336" y="25" fill="#4559ff" rx="1" transform="rotate(35.741 5.336 25)" />
            <path
                fill="#e0e0e0"
                d="M19.474 2a9.57 9.57 0 0 0-5.016 1.42 9.5 9.5 0 0 0-3.518 3.834 9.4 9.4 0 0 0-1.007 4.217.88.88 0 0 1-.804.893.87.87 0 0 1-.929-.864c0-1.208.195-2.408.579-3.554a.43.43 0 0 0-.285-.554.44.44 0 0 0-.23-.005 6.95 6.95 0 0 0-3.789 2.45A6.9 6.9 0 0 0 3 14.09C3 17.89 6.223 21 10.042 21h9.425a9.57 9.57 0 0 0 6.87-2.92 9.5 9.5 0 0 0 2.656-6.956C28.796 6.053 24.566 2 19.473 2"
            />
        </symbol>
        <symbol id="fog" viewBox="0 0 32 32">
            <path
                fill="#a8a8a8"
                d="M21 29a1 1 0 0 1-1 1h-7a1 1 0 1 1 0-2h7a1 1 0 0 1 1 1m-5-4a1 1 0 0 0-1-1H9a1 1 0 0 0 0 2h6a1 1 0 0 0 1-1m7-1h-3a1 1 0 0 0 0 2h3a1 1 0 1 0 0-2m5.984-12.056a9.5 9.5 0 0 0-18.973.091 1.023 1.023 0 0 1-1.01.965h-.076A1.017 1.017 0 0 1 8 11.924c.035-.695.132-1.386.291-2.064a.5.5 0 0 0-.625-.597A6.51 6.51 0 0 0 3 15.545C3.025 19.134 6.015 22 9.605 22H19.5a9.51 9.51 0 0 0 9.484-10.056"
            />
        </symbol>
        <symbol id="freezing-rain" viewBox="0 0 32 32">
            <rect width="3" height="3" x="18.754" y="22" fill="#e0e0e0" rx="1.5" transform="rotate(35.741 18.754 22)" />
            <rect width="2" height="4" x="26.336" y="20" fill="#4559ff" rx="1" transform="rotate(35.741 26.336 20)" />
            <rect width="2" height="4" x="23.336" y="24" fill="#4559ff" rx="1" transform="rotate(35.741 23.336 24)" />
            <rect width="3" height="3" x="15.754" y="26" fill="#e0e0e0" rx="1.5" transform="rotate(35.741 15.754 26)" />
            <rect width="2" height="4" x="15.336" y="19" fill="#4559ff" rx="1" transform="rotate(35.741 15.336 19)" />
            <rect width="2" height="4" x="12.336" y="23" fill="#4559ff" rx="1" transform="rotate(35.741 12.336 23)" />
            <rect width="3" height="3" x="7.754" y="21" fill="#e0e0e0" rx="1.5" transform="rotate(35.741 7.754 21)" />
            <rect width="3" height="3" x="4.754" y="25" fill="#e0e0e0" rx="1.5" transform="rotate(35.741 4.754 25)" />
            <path
                fill="#e0e0e0"
                d="M19.474 2a9.57 9.57 0 0 0-5.016 1.42 9.5 9.5 0 0 0-3.518 3.834 9.4 9.4 0 0 0-1.007 4.217.88.88 0 0 1-.804.893.87.87 0 0 1-.929-.864c0-1.208.195-2.408.579-3.554a.43.43 0 0 0-.285-.554.44.44 0 0 0-.23-.005 6.95 6.95 0 0 0-3.789 2.45A6.9 6.9 0 0 0 3 14.09C3 17.89 6.223 21 10.042 21h9.425a9.57 9.57 0 0 0 6.87-2.92 9.5 9.5 0 0 0 2.656-6.956C28.796 6.053 24.566 2 19.473 2"
            />
        </symbol>
        <symbol id="heavy-rain" viewBox="0 0 32 32">
            <path
                fill="#4559ff"
                d="m19.833 24.556-4 6a1 1 0 0 1-1.388.277 1 1 0 0 1-.277-1.387l4-6a1.001 1.001 0 0 1 1.665 1.11M9.833 22.556l-4 6a1 1 0 1 1-1.665-1.11l4-6a1.001 1.001 0 0 1 1.665 1.11M26.833 22.556l-4 6a1 1 0 0 1-1.387.277 1 1 0 0 1-.278-1.387l4-6a1.001 1.001 0 0 1 1.665 1.11M16.833 20.556l-4 6a1 1 0 0 1-1.388.277 1 1 0 0 1-.277-1.387l4-6a1.001 1.001 0 0 1 1.665 1.11"
            />
            <path
                fill="#e0e0e0"
                d="M19.474 2a9.57 9.57 0 0 0-5.016 1.42 9.5 9.5 0 0 0-3.518 3.834 9.4 9.4 0 0 0-1.007 4.217.88.88 0 0 1-.804.893.87.87 0 0 1-.929-.864c0-1.208.195-2.408.579-3.554a.43.43 0 0 0-.285-.554.44.44 0 0 0-.23-.005 6.95 6.95 0 0 0-3.789 2.45A6.9 6.9 0 0 0 3 14.09C3 17.89 6.223 21 10.042 21h9.425a9.57 9.57 0 0 0 6.87-2.92 9.5 9.5 0 0 0 2.656-6.956C28.796 6.053 24.566 2 19.473 2"
            />
        </symbol>
        <symbol id="partly-cloudy-day" viewBox="0 0 32 32">
            <g clip-path="url(#a)">
                <path
                    fill="#f4c01a"
                    d="m12.842 5.148.396-1.833a.625.625 0 0 1 1.222.264l-.396 1.833a.625.625 0 0 1-1.222-.264m.215 1.965a5 5 0 1 0-2.11 9.774 5 5 0 0 0 2.11-9.774m-5.413-.716a.625.625 0 1 0 1.051-.678l-.958-1.486a.625.625 0 0 0-1.05.678zm-1.923 8.91-1.485.958a.625.625 0 0 0 .678 1.051l1.485-.958a.624.624 0 1 0-.678-1.05m12.092-6.529a.63.63 0 0 0 .47-.085l1.486-.958a.626.626 0 0 0-.677-1.051l-1.486.958a.625.625 0 0 0 .207 1.136m-1.452 8.825a.625.625 0 0 0-1.051.678l.958 1.486a.625.625 0 0 0 1.05-.678zM5.893 10.681a.625.625 0 0 0-.479-.742l-1.833-.396a.625.625 0 0 0-.263 1.222l1.832.396a.625.625 0 0 0 .743-.48m4.79 7.428a.626.626 0 0 0-.742.48l-.395 1.832a.625.625 0 0 0 1.221.264l.396-1.833a.626.626 0 0 0-.48-.743m10.004-4.874-1.832-.396a.626.626 0 0 0-.264 1.222l1.833.396a.625.625 0 0 0 .263-1.222"
                />
            </g>
            <path
                fill="#d9d9d9"
                d="M19.951 9.125A9.5 9.5 0 1 1 21.496 28h-10A6.5 6.5 0 0 1 6.26 17.654l1.486-1.455a6.46 6.46 0 0 1 4.875-1.102 9.55 9.55 0 0 1 2.122-3.273c.925-.933 3.253-2.152 3.253-2.152z"
            />
            <defs>
                <clipPath id="a">
                    <path fill="#fff" d="m4.336.115 19.55 4.22-4.22 19.55-19.55-4.22z" />
                </clipPath>
            </defs>
        </symbol>
        <symbol id="partly-cloudy-night" viewBox="0 0 32 32">
            <path
                fill="#f4c01a"
                d="M2.04 14.76a10.3 10.3 0 0 0 3.628 5.19A10.198 10.198 0 0 0 22 11.796a10.1 10.1 0 0 0-2.048-6.132 10.28 10.28 0 0 0-5.188-3.63.784.784 0 0 0-.981.982 8.64 8.64 0 0 1-10.768 10.77.785.785 0 0 0-.98.98z"
            />
            <path
                fill="#d9d9d9"
                d="M19.951 9.125A9.5 9.5 0 1 1 21.496 28h-10A6.5 6.5 0 0 1 6.26 17.654l1.486-1.455a6.46 6.46 0 0 1 4.875-1.102 9.55 9.55 0 0 1 2.122-3.273c.925-.933 3.253-2.152 3.253-2.152z"
            />
        </symbol>
        <symbol id="rain-showers" viewBox="0 0 32 32">
            <path
                fill="#4559ff"
                d="M21.75 5.969a31.8 31.8 0 0 0-5.181-4.788 1 1 0 0 0-1.148 0A31.8 31.8 0 0 0 10.25 5.97C6.814 9.915 5 14.075 5 18a11 11 0 0 0 22 0c0-3.925-1.814-8.085-5.25-12.031m1.231 13.199a7.2 7.2 0 0 1-5.82 5.818 1 1 0 0 1-.326-1.973c2.071-.348 3.829-2.105 4.18-4.18a1 1 0 1 1 1.973.335z"
            />
        </symbol>
        <symbol id="rain" viewBox="0 0 32 32">
            <path
                fill="#4559ff"
                d="m19.833 24.556-4 6a1 1 0 0 1-1.388.277 1 1 0 0 1-.277-1.387l4-6a1.001 1.001 0 0 1 1.665 1.11M16.833 20.556l-4 6a1 1 0 0 1-1.388.277 1 1 0 0 1-.277-1.387l4-6a1.001 1.001 0 0 1 1.665 1.11"
            />
            <path
                fill="#e0e0e0"
                d="M19.474 2a9.57 9.57 0 0 0-5.016 1.42 9.5 9.5 0 0 0-3.518 3.834 9.4 9.4 0 0 0-1.007 4.217.88.88 0 0 1-.804.893.87.87 0 0 1-.929-.864c0-1.208.195-2.408.579-3.554a.43.43 0 0 0-.285-.554.44.44 0 0 0-.23-.005 6.95 6.95 0 0 0-3.789 2.45A6.9 6.9 0 0 0 3 14.09C3 17.89 6.223 21 10.042 21h9.425a9.57 9.57 0 0 0 6.87-2.92 9.5 9.5 0 0 0 2.656-6.956C28.796 6.053 24.566 2 19.473 2"
            />
        </symbol>
        <symbol id="snow" viewBox="0 0 32 32">
            <path
                fill="#e0e0e0"
                d="M11 24.5a1.5 1.5 0 1 1-3 0 1.5 1.5 0 0 1 3 0m3.5.5a1.5 1.5 0 1 0 0 3 1.5 1.5 0 0 0 0-3m6-2a1.5 1.5 0 1 0 0 3 1.5 1.5 0 0 0 0-3m-12 5a1.5 1.5 0 1 0 0 3 1.5 1.5 0 0 0 0-3m11 0a1.5 1.5 0 1 0 0 3 1.5 1.5 0 0 0 0-3m9.484-17.056a9.5 9.5 0 0 0-18.973.091 1.023 1.023 0 0 1-1.01.965h-.076A1.017 1.017 0 0 1 8 10.924c.035-.695.132-1.386.291-2.064a.5.5 0 0 0-.625-.597A6.51 6.51 0 0 0 3 14.545C3.025 18.134 6.015 21 9.605 21H19.5a9.51 9.51 0 0 0 9.484-10.056"
            />
        </symbol>
        <symbol id="temp-high" viewBox="0 0 16 19">
            <path
                d="m.455 7.204 6.75-6.75a1.125 1.125 0 0 1 1.594 0l6.75 6.75a1.127 1.127 0 1 1-1.594 1.594l-4.829-4.83V17.75a1.125 1.125 0 1 1-2.25 0V3.969l-4.829 4.83A1.127 1.127 0 0 1 .453 7.205z"
            />
        </symbol>
        <symbol id="temp-low" viewBox="0 0 16 19">
            <path
                d="m15.545 11.796-6.75 6.75a1.125 1.125 0 0 1-1.594 0l-6.75-6.75a1.127 1.127 0 1 1 1.594-1.594l4.829 4.83V1.25a1.125 1.125 0 0 1 2.25 0v13.781l4.829-4.83a1.127 1.127 0 1 1 1.594 1.594z"
            />
        </symbol>
        <symbol id="thunderstorm-hail" viewBox="0 0 32 32">
            <rect width="2" height="4" x="26.336" y="20" fill="#4559ff" rx="1" transform="rotate(35.741 26.336 20)" />
            <rect width="2" height="4" x="23.336" y="24" fill="#4559ff" rx="1" transform="rotate(35.741 23.336 24)" />
            <rect width="2" height="4" x="8.336" y="21" fill="#4559ff" rx="1" transform="rotate(35.741 8.336 21)" />
            <rect width="2" height="4" x="5.336" y="25" fill="#4559ff" rx="1" transform="rotate(35.741 5.336 25)" />
            <path
                fill="#e0e0e0"
                d="M19.474 2a9.57 9.57 0 0 0-5.016 1.42 9.5 9.5 0 0 0-3.518 3.834 9.4 9.4 0 0 0-1.007 4.217.88.88 0 0 1-.804.893.87.87 0 0 1-.929-.864c0-1.208.195-2.408.579-3.554a.43.43 0 0 0-.285-.554.44.44 0 0 0-.23-.005 6.95 6.95 0 0 0-3.789 2.45A6.9 6.9 0 0 0 3 14.09C3 17.89 6.223 21 10.042 21h9.425a9.57 9.57 0 0 0 6.87-2.92 9.5 9.5 0 0 0 2.656-6.956C28.796 6.053 24.566 2 19.473 2"
            />
            <path
                fill="#f4c01a"
                d="m14.767 24 1.8-3h-2.333l-2.091 3.485A1 1 0 0 0 13 26h3.234l-2.091 3.485a1 1 0 0 0 1.715 1.03l3-5A1 1 0 0 0 18 24z"
            />
        </symbol>
        <symbol id="thunderstorm" viewBox="0 0 32 32">
            <path
                fill="#f4c01a"
                d="m14.767 24 1.8-3h-2.333l-2.091 3.485A1 1 0 0 0 13 26h3.234l-2.091 3.485a1 1 0 0 0 1.715 1.03l3-5A1 1 0 0 0 18 24z"
            />
            <path
                fill="#e0e0e0"
                d="M19.474 2a9.57 9.57 0 0 0-5.016 1.42 9.5 9.5 0 0 0-3.518 3.834 9.4 9.4 0 0 0-1.007 4.217.88.88 0 0 1-.804.893.87.87 0 0 1-.929-.864c0-1.208.195-2.408.579-3.554a.43.43 0 0 0-.285-.554.44.44 0 0 0-.23-.005 6.95 6.95 0 0 0-3.789 2.45A6.9 6.9 0 0 0 3 14.09C3 17.89 6.223 21 10.042 21h9.425a9.57 9.57 0 0 0 6.87-2.92 9.5 9.5 0 0 0 2.656-6.956C28.796 6.053 24.566 2 19.473 2"
            />
        </symbol>
        <symbol id="time-sunrise" viewBox="0 0 28 28">
            <path
                d="M1.75 22.75h24.498v1.75H1.75zM14 17.5a3.504 3.504 0 0 1 3.5 3.5h1.75a5.25 5.25 0 1 0-10.5 0h1.75a3.504 3.504 0 0 1 3.5-3.5m7.875 1.75h4.375V21h-4.375zm-2.899-4.462 3.068-3.07 1.237 1.238-3.068 3.068zM14 3.5 9.625 7.875l1.234 1.234 2.266-2.258v6.274h1.75V6.851l2.266 2.258 1.234-1.234zm-9.281 9.456 1.237-1.237 3.068 3.068-1.236 1.237zM1.75 19.25h4.375V21H1.75z"
            />
        </symbol>
        <symbol id="time-sunset" viewBox="0 0 28 28">
            <path
                d="M1.75 22.754h24.498v1.75H1.75zM14 17.504a3.504 3.504 0 0 1 3.5 3.5h1.75a5.25 5.25 0 1 0-10.5 0h1.75a3.504 3.504 0 0 1 3.5-3.5m7.875 1.75h4.375v1.75h-4.375zm-2.899-4.463 3.068-3.068 1.237 1.237-3.068 3.068zm-1.835-6.395-2.266 2.257V3.504h-1.75v7.15l-2.266-2.258-1.234 1.233L14 14.004l4.375-4.375zM4.72 12.96l1.237-1.237 3.068 3.068-1.238 1.237zm-2.97 6.294h4.375v1.75H1.75z"
            />
        </symbol>
    </defs>
    <use href="#clear-day" x="0" y="0" width="100" height="100" />
    <use href="#clear-night" x="100" y="0" width="100" height="100" />
    <use href="#cloudy" x="200" y="0" width="100" height="100" />
    <use href="#drizzle" x="300" y="0" width="100" height="100" />
    <use href="#fog" x="400" y="0" width="100" height="100" />
    <use href="#freezing-rain" x="0" y="100" width="100" height="100" />
    <use href="#heavy-rain" x="100" y="100" width="100" height="100" />
    <use href="#partly-cloudy-day" x="200" y="100" width="100" height="100" />
    <use href="#partly-cloudy-night" x="300" y="100" width="100" height="100" />
    <use href="#rain-showers" x="400" y="100" width="100" height="100" />
    <use href="#rain" x="0" y="200" width="100" height="100" />
    <use href="#snow" x="100" y="200" width="100" height="100" />
    <use href="#temp-high" x="200" y="200" width="100" height="100" />
    <use href="#temp-low" x="300" y="200" width="100" height="100" />
    <use href="#thunderstorm-hail" x="400" y="200" width="100" height="100" />
    <use href="#thunderstorm" x="0" y="300" width="100" height="100" />
    <use href="#time-sunrise" x="100" y="300" width="100" height="100" />
    <use href="#time-sunset" x="200" y="300" width="100" height="100" />
</svg>
