<svg width="32" height="32" viewBox="0 0 32 32" fill="none" xmlns="http://www.w3.org/2000/svg">
    <rect x="19.3359" y="22" width="2" height="4" rx="1" transform="rotate(35.741 19.3359 22)" fill="#4559FF" />
    <rect x="26.3359" y="20" width="2" height="4" rx="1" transform="rotate(35.741 26.3359 20)" fill="#4559FF" />
    <rect x="23.3359" y="24" width="2" height="4" rx="1" transform="rotate(35.741 23.3359 24)" fill="#4559FF" />
    <rect x="16.3359" y="26" width="2" height="4" rx="1" transform="rotate(35.741 16.3359 26)" fill="#4559FF" />
    <rect x="15.3359" y="19" width="2" height="4" rx="1" transform="rotate(35.741 15.3359 19)" fill="#4559FF" />
    <rect x="12.3359" y="23" width="2" height="4" rx="1" transform="rotate(35.741 12.3359 23)" fill="#4559FF" />
    <rect x="8.33594" y="21" width="2" height="4" rx="1" transform="rotate(35.741 8.33594 21)" fill="#4559FF" />
    <rect x="5.33594" y="25" width="2" height="4" rx="1" transform="rotate(35.741 5.33594 25)" fill="#4559FF" />
    <path
        d="M19.4735 2C17.7019 2.00028 15.9653 2.49191 14.4582 3.41985C12.951 4.3478 11.7328 5.67544 10.9399 7.25415C10.2809 8.56296 9.93635 10.0065 9.93347 11.4709C9.93687 11.6933 9.85584 11.9089 9.7066 12.0744C9.55736 12.24 9.35091 12.3433 9.12854 12.3636C9.00964 12.3721 8.89026 12.356 8.77788 12.3164C8.66549 12.2768 8.56251 12.2146 8.47538 12.1335C8.38824 12.0525 8.31882 11.9544 8.27145 11.8454C8.22409 11.7364 8.1998 11.6188 8.2001 11.5C8.19919 10.292 8.39455 9.09188 8.77861 7.94614C8.80392 7.87267 8.80887 7.79377 8.79295 7.71773C8.77702 7.6417 8.74081 7.57135 8.68813 7.51411C8.63545 7.45686 8.56825 7.41483 8.49361 7.39245C8.41897 7.37007 8.33966 7.36816 8.26402 7.38693C6.7623 7.75991 5.42868 8.62217 4.47497 9.83678C3.52125 11.0514 3.00211 12.5487 3 14.0909C3 17.8898 6.22298 21 10.0418 21H19.467C20.7503 20.9986 22.0201 20.7394 23.2005 20.2377C24.381 19.736 25.4477 19.0023 26.337 18.0803C27.2263 17.1584 27.9199 16.0672 28.3762 14.872C28.8326 13.6768 29.0423 12.4022 28.9929 11.1243C28.7958 6.05261 24.5663 2 19.4735 2Z"
        fill="#E0E0E0"
    />
</svg>
