<svg width="32" height="32" viewBox="0 0 32 32" fill="none" xmlns="http://www.w3.org/2000/svg">
    <path
        d="M19.833 24.5555L15.833 30.5555C15.7602 30.6649 15.6665 30.7588 15.5573 30.8319C15.4481 30.905 15.3256 30.9559 15.1968 30.9817C14.9366 31.0337 14.6663 30.9802 14.4455 30.833C14.2248 30.6859 14.0715 30.457 14.0194 30.1968C13.9674 29.9366 14.0208 29.6663 14.168 29.4455L18.168 23.4455C18.3152 23.2248 18.5441 23.0715 18.8043 23.0194C19.0645 22.9674 19.3348 23.0208 19.5555 23.168C19.7763 23.3152 19.9296 23.5441 19.9817 23.8043C20.0337 24.0645 19.9802 24.3348 19.833 24.5555Z"
        fill="#4559FF"
    />
    <path
        d="M9.83304 22.5555L5.83305 28.5555C5.76016 28.6649 5.66646 28.7588 5.55729 28.8319C5.44811 28.905 5.32561 28.9559 5.19677 28.9817C4.93656 29.0337 4.66634 28.9802 4.44554 28.833C4.22475 28.6859 4.07148 28.457 4.01943 28.1968C3.96739 27.9366 4.02085 27.6663 4.16804 27.4455L8.16804 21.4455C8.31524 21.2248 8.54412 21.0715 8.80432 21.0194C9.06453 20.9674 9.33475 21.0208 9.55554 21.168C9.77634 21.3152 9.92961 21.5441 9.98166 21.8043C10.0337 22.0645 9.98024 22.3348 9.83304 22.5555Z"
        fill="#4559FF"
    />
    <path
        d="M26.833 22.5555L22.833 28.5555C22.7602 28.6649 22.6665 28.7588 22.5573 28.8319C22.4481 28.905 22.3256 28.9559 22.1968 28.9817C21.9366 29.0337 21.6663 28.9802 21.4455 28.833C21.2248 28.6859 21.0715 28.457 21.0194 28.1968C20.9674 27.9366 21.0208 27.6663 21.168 27.4455L25.168 21.4455C25.3152 21.2248 25.5441 21.0715 25.8043 21.0194C26.0645 20.9674 26.3348 21.0208 26.5555 21.168C26.7763 21.3152 26.9296 21.5441 26.9817 21.8043C27.0337 22.0645 26.9802 22.3348 26.833 22.5555Z"
        fill="#4559FF"
    />
    <path
        d="M16.833 20.5555L12.833 26.5555C12.7602 26.6649 12.6665 26.7588 12.5573 26.8319C12.4481 26.905 12.3256 26.9559 12.1968 26.9817C11.9366 27.0337 11.6663 26.9802 11.4455 26.833C11.2248 26.6859 11.0715 26.457 11.0194 26.1968C10.9674 25.9366 11.0208 25.6663 11.168 25.4455L15.168 19.4455C15.3152 19.2248 15.5441 19.0715 15.8043 19.0194C16.0645 18.9674 16.3348 19.0208 16.5555 19.168C16.7763 19.3152 16.9296 19.5441 16.9817 19.8043C17.0337 20.0645 16.9802 20.3348 16.833 20.5555Z"
        fill="#4559FF"
    />
    <path
        d="M19.4735 2C17.7019 2.00028 15.9653 2.49191 14.4582 3.41985C12.951 4.3478 11.7328 5.67544 10.9399 7.25415C10.2809 8.56296 9.93635 10.0065 9.93347 11.4709C9.93687 11.6933 9.85584 11.9089 9.7066 12.0744C9.55736 12.24 9.35091 12.3433 9.12854 12.3636C9.00964 12.3721 8.89026 12.356 8.77788 12.3164C8.66549 12.2768 8.56251 12.2146 8.47538 12.1335C8.38824 12.0525 8.31882 11.9544 8.27145 11.8454C8.22409 11.7364 8.1998 11.6188 8.2001 11.5C8.19919 10.292 8.39455 9.09188 8.77861 7.94614C8.80392 7.87267 8.80887 7.79377 8.79295 7.71773C8.77702 7.6417 8.74081 7.57135 8.68813 7.51411C8.63545 7.45686 8.56825 7.41483 8.49361 7.39245C8.41897 7.37007 8.33966 7.36816 8.26402 7.38693C6.7623 7.75991 5.42868 8.62217 4.47497 9.83678C3.52125 11.0514 3.00211 12.5487 3 14.0909C3 17.8898 6.22298 21 10.0418 21H19.467C20.7503 20.9986 22.0201 20.7394 23.2005 20.2377C24.381 19.736 25.4477 19.0023 26.337 18.0803C27.2263 17.1584 27.9199 16.0672 28.3762 14.872C28.8326 13.6768 29.0423 12.4022 28.9929 11.1243C28.7958 6.05261 24.5663 2 19.4735 2Z"
        fill="#E0E0E0"
    />
</svg>
