<svg width="16" height="19" viewBox="0 0 16 19" fill="currentColor" xmlns="http://www.w3.org/2000/svg">
    <path
        d="M0.45508 7.20406L7.20508 0.45406C7.30959 0.349181 7.43379 0.265965 7.57053 0.209185C7.70728 0.152404 7.85389 0.123173 8.00195 0.123173C8.15002 0.123173 8.29663 0.152404 8.43337 0.209185C8.57012 0.265965 8.69431 0.349181 8.79883 0.45406L15.5488 7.20406C15.7602 7.41541 15.8789 7.70205 15.8789 8.00094C15.8789 8.29982 15.7602 8.58647 15.5488 8.79781C15.3375 9.00916 15.0508 9.12789 14.752 9.12789C14.4531 9.12789 14.1664 9.00916 13.9551 8.79781L9.12602 3.96875L9.12602 17.75C9.12602 18.0484 9.00749 18.3345 8.79651 18.5455C8.58553 18.7565 8.29939 18.875 8.00102 18.875C7.70265 18.875 7.4165 18.7565 7.20552 18.5455C6.99454 18.3345 6.87602 18.0484 6.87602 17.75L6.87602 3.96875L2.04696 8.79875C1.83561 9.01009 1.54897 9.12883 1.25008 9.12883C0.951195 9.12883 0.664551 9.0101 0.453206 8.79875C0.241862 8.58741 0.123127 8.30076 0.123127 8.00188C0.123127 7.70299 0.241862 7.41635 0.453206 7.205L0.45508 7.20406Z"
    />
</svg>
