<svg width="16" height="19" viewBox="0 0 16 19" fill="currentColor" xmlns="http://www.w3.org/2000/svg">
    <path
        d="M15.5449 11.7959L8.79492 18.5459C8.6904 18.6508 8.56621 18.734 8.42947 18.7908C8.29272 18.8476 8.14611 18.8768 7.99804 18.8768C7.84998 18.8768 7.70337 18.8476 7.56662 18.7908C7.42988 18.734 7.30569 18.6508 7.20117 18.5459L0.45117 11.7959C0.239826 11.5846 0.121094 11.2979 0.121094 10.9991C0.121094 10.7002 0.239826 10.4135 0.45117 10.2022C0.662515 9.99084 0.949159 9.87211 1.24805 9.87211C1.54693 9.87211 1.83358 9.99084 2.04492 10.2022L6.87398 15.0312V1.25C6.87398 0.951631 6.99251 0.665483 7.20349 0.454505C7.41447 0.243526 7.70061 0.125 7.99898 0.125C8.29735 0.125 8.5835 0.243526 8.79448 0.454505C9.00546 0.665483 9.12398 0.951631 9.12398 1.25V15.0312L13.953 10.2013C14.1644 9.98991 14.451 9.87117 14.7499 9.87117C15.0488 9.87117 15.3354 9.98991 15.5468 10.2013C15.7581 10.4126 15.8769 10.6992 15.8769 10.9981C15.8769 11.297 15.7581 11.5837 15.5468 11.795L15.5449 11.7959Z"
    />
</svg>
