<svg width="32" height="32" viewBox="0 0 32 32" fill="none" xmlns="http://www.w3.org/2000/svg">
    <path
        d="M14.7666 24L16.5666 21H14.2341L12.1428 24.485C12.0516 24.6368 12.0024 24.81 12.0001 24.987C11.9978 25.164 12.0425 25.3385 12.1297 25.4926C12.2169 25.6466 12.3435 25.7748 12.4964 25.864C12.6494 25.9531 12.8233 26.0001 13.0003 26H16.2341L14.1428 29.485C14.0752 29.5976 14.0304 29.7224 14.011 29.8524C13.9916 29.9823 13.998 30.1147 14.0298 30.2422C14.0616 30.3696 14.1182 30.4896 14.1964 30.5951C14.2745 30.7007 14.3727 30.7899 14.4853 30.8575C14.5979 30.9251 14.7227 30.9699 14.8527 30.9893C14.9826 31.0087 15.115 31.0023 15.2425 30.9705C15.3699 30.9387 15.4899 30.8821 15.5955 30.8039C15.701 30.7258 15.7902 30.6276 15.8578 30.515L18.8578 25.515C18.949 25.3632 18.9982 25.19 19.0005 25.013C19.0028 24.836 18.9581 24.6615 18.8709 24.5074C18.7837 24.3533 18.6571 24.2252 18.5042 24.136C18.3512 24.0469 18.1773 23.9999 18.0003 24H14.7666Z"
        fill="#F4C01A"
    />
    <path
        d="M19.4735 2C17.7019 2.00028 15.9653 2.49191 14.4582 3.41985C12.951 4.3478 11.7328 5.67544 10.9399 7.25415C10.2809 8.56296 9.93635 10.0065 9.93347 11.4709C9.93687 11.6933 9.85584 11.9089 9.7066 12.0744C9.55736 12.24 9.35091 12.3433 9.12854 12.3636C9.00964 12.3721 8.89026 12.356 8.77788 12.3164C8.66549 12.2768 8.56251 12.2146 8.47538 12.1335C8.38824 12.0525 8.31882 11.9544 8.27145 11.8454C8.22409 11.7364 8.1998 11.6188 8.2001 11.5C8.19919 10.292 8.39455 9.09188 8.77861 7.94614C8.80392 7.87267 8.80887 7.79377 8.79295 7.71773C8.77702 7.6417 8.74081 7.57135 8.68813 7.51411C8.63545 7.45686 8.56825 7.41483 8.49361 7.39245C8.41897 7.37007 8.33966 7.36816 8.26402 7.38693C6.7623 7.75991 5.42868 8.62217 4.47497 9.83678C3.52125 11.0514 3.00211 12.5487 3 14.0909C3 17.8898 6.22298 21 10.0418 21H19.467C20.7503 20.9986 22.0201 20.7394 23.2005 20.2377C24.381 19.736 25.4477 19.0023 26.337 18.0803C27.2263 17.1584 27.9199 16.0672 28.3762 14.872C28.8326 13.6768 29.0423 12.4022 28.9929 11.1243C28.7958 6.05261 24.5663 2 19.4735 2Z"
        fill="#E0E0E0"
    />
</svg>
