<svg width="28" height="28" viewBox="0 0 28 28" fill="currentColor" xmlns="http://www.w3.org/2000/svg">
    <path
        d="M1.75 22.7544H26.2482V24.5044H1.75V22.7544ZM14 17.5044C15.932 17.5068 17.4976 19.0724 17.5 21.0044H19.25C19.25 18.1049 16.8995 15.7544 14 15.7544C11.1005 15.7544 8.75 18.1049 8.75 21.0044H10.5C10.5024 19.0724 12.068 17.5068 14 17.5044ZM21.875 19.2544H26.25V21.0044H21.875V19.2544ZM18.9761 14.791L22.0439 11.7233L23.2811 12.9605L20.2134 16.0283L18.9761 14.791ZM17.1413 8.39564L14.875 10.6531V3.50439H13.125V10.6531L10.8588 8.39564L9.625 9.62939L14 14.0044L18.375 9.62939L17.1413 8.39564ZM4.71975 12.9605L5.957 11.7233L9.02475 14.791L7.78663 16.0283L4.71975 12.9605ZM1.75 19.2544H6.125V21.0044H1.75V19.2544Z"
    />
</svg>
